<svg width="39" height="41" viewBox="0 0 39 41" fill="none" xmlns="http://www.w3.org/2000/svg">
	<rect x="33.2581" y="5.56238" width="4" height="39.9588" transform="rotate(45.9009 33.2581 5.56238)" fill="#FF00D6" />
	<rect x="20.6378" y="24.522" width="4" height="17.6194" transform="rotate(-44.0991 20.6378 24.522)" fill="#FF00D6" />
	<rect x="4.83289" y="8.21167" width="4" height="16.8772" transform="rotate(-44.0991 4.83289 8.21167)" fill="#FF00D6" />
	<rect x="3.85608" y="22.5826" width="4" height="13.7" transform="rotate(-135.563 3.85608 22.5826)" fill="#FF00D6" />
	<rect x="3" y="21.7857" width="4" height="13.4465" transform="rotate(-44.1394 3 21.7857)" fill="#FF00D6" />
	<path d="M27 30.1489L27.0855 27L38.2041 27.3018L38.1186 30.4506L27 30.1489Z" fill="#FF00D6" />
	<rect x="26" y="23.1436" width="3.1448" height="9.46652" transform="rotate(-88.4455 26 23.1436)" fill="#FF00D6" />
	<rect x="35.2053" y="16" width="3.2" height="11.3884" transform="rotate(1.0332 35.2053 16)" fill="#FF00D6" />
	<rect x="27.0341" y="16.7457" width="2.74672" height="11.35" transform="rotate(-88.4455 27.0341 16.7457)" fill="#FF00D6" />
	<path d="M13.7675 3.35006V4.77006H16.0575V6.09006H13.7675V7.63006H16.3575V9.00006H12.0575V1.98006H16.3575V3.35006H13.7675ZM24.0577 1.98006L21.5677 9.00006H19.4277L16.9377 1.98006H18.7577L20.4977 7.28006L22.2477 1.98006H24.0577ZM26.4823 3.35006V4.77006H28.7723V6.09006H26.4823V7.63006H29.0723V9.00006H24.7723V1.98006H29.0723V3.35006H26.4823Z" fill="white" />
	<path d="M17.11 40H15.4L12.54 35.67V40H10.83V32.98H12.54L15.4 37.33V32.98H17.11V40ZM23.3995 32.98V34.35H21.5395V40H19.8295V34.35H17.9695V32.98H23.3995ZM26.7977 40.07C26.2844 40.07 25.8244 39.9867 25.4177 39.82C25.011 39.6533 24.6844 39.4067 24.4377 39.08C24.1977 38.7533 24.071 38.36 24.0577 37.9H25.8777C25.9044 38.16 25.9944 38.36 26.1477 38.5C26.301 38.6333 26.501 38.7 26.7477 38.7C27.001 38.7 27.201 38.6433 27.3477 38.53C27.4944 38.41 27.5677 38.2467 27.5677 38.04C27.5677 37.8667 27.5077 37.7233 27.3877 37.61C27.2744 37.4967 27.131 37.4033 26.9577 37.33C26.791 37.2567 26.551 37.1733 26.2377 37.08C25.7844 36.94 25.4144 36.8 25.1277 36.66C24.841 36.52 24.5944 36.3133 24.3877 36.04C24.181 35.7667 24.0777 35.41 24.0777 34.97C24.0777 34.3167 24.3144 33.8067 24.7877 33.44C25.261 33.0667 25.8777 32.88 26.6377 32.88C27.411 32.88 28.0344 33.0667 28.5077 33.44C28.981 33.8067 29.2344 34.32 29.2677 34.98H27.4177C27.4044 34.7533 27.321 34.5767 27.1677 34.45C27.0144 34.3167 26.8177 34.25 26.5777 34.25C26.371 34.25 26.2044 34.3067 26.0777 34.42C25.951 34.5267 25.8877 34.6833 25.8877 34.89C25.8877 35.1167 25.9944 35.2933 26.2077 35.42C26.421 35.5467 26.7544 35.6833 27.2077 35.83C27.661 35.9833 28.0277 36.13 28.3077 36.27C28.5944 36.41 28.841 36.6133 29.0477 36.88C29.2544 37.1467 29.3577 37.49 29.3577 37.91C29.3577 38.31 29.2544 38.6733 29.0477 39C28.8477 39.3267 28.5544 39.5867 28.1677 39.78C27.781 39.9733 27.3244 40.07 26.7977 40.07Z" fill="white" />
</svg>
